#!OML:ASF F:\VICON\USERDATA\INSTALL\rory3\rory3.ASF
:FULLY-SPECIFIED
:DEGREES
600
root 5.64694 17.3359 1.80983 19.3746 1.19576 0.932813
lowerback -14.8711 1.24143 11.5268
upperback -14.2103 0.627852 1.13221
thorax -7.13877 -0.64207 -5.155
lowerneck -5.10741 18.3272 9.43675
upperneck 8.28854 23.8865 -0.535394
head 4.4366 12.0459 -0.0302281
rclavicle -4.37326e-014 2.06736e-014
rhumerus 18.6809 -32.42 14.8241
rradius 109.323
rwrist -56.4364
rhand -5.90611 -44.0851
rfingers 7.12502
rthumb 19.9226 -73.0839
lclavicle -4.37326e-014 2.06736e-014
lhumerus 23.9807 20.9265 -12.612
lradius 35.8769
lwrist 54.6701
lhand -19.8572 -14.3259
lfingers 7.12502
lthumb 6.47765 15.555
rfemur -6.06501 13.0399 -9.26136
rtibia 3.13866
rfoot -12.3282 -25.4913
rtoes 32.7545
lfemur -17.5566 3.32899 -31.2328
ltibia 17.777
lfoot -18.2775 3.24591
ltoes 7.75755
601
root 5.64521 17.3361 1.81022 19.3401 1.27027 0.939646
lowerback -14.7799 1.20192 11.5205
upperback -14.2274 0.590489 1.11546
thorax -7.21455 -0.665819 -5.17289
lowerneck -5.1994 18.3527 9.46558
upperneck 8.38583 23.9085 -0.511746
head 4.48262 12.0581 -0.00975224
rclavicle 7.55382e-015 0
rhumerus 18.2403 -32.4462 15.2813
rradius 109.448
rwrist -56.7565
rhand -6.46368 -43.9563
rfingers 7.12502
rthumb 19.3866 -73.0099
lclavicle 7.55382e-015 0
lhumerus 24.057 21.1253 -12.5062
lradius 35.701
lwrist 54.38
lhand -19.706 -14.526
lfingers 7.12502
lthumb 6.6236 15.3504
rfemur -5.86228 12.9966 -9.20462
rtibia 2.96232
rfoot -12.9981 -25.1903
rtoes 34.3016
lfemur -17.5326 3.32818 -31.2111
ltibia 17.8036
lfoot -18.3151 3.11911
ltoes 8.08073
602
root 5.64356 17.3366 1.8112 19.3407 1.38904 0.869501
lowerback -14.7868 1.17896 11.5856
upperback -14.2047 0.552527 1.11984
thorax -7.19429 -0.688069 -5.20778
lowerneck -5.33268 18.412 9.43271
upperneck 8.40148 23.9722 -0.470126
head 4.50169 12.0884 0.0239785
rclavicle 2.66371e-014 -4.45278e-014
rhumerus 17.6878 -32.4934 15.901
rradius 109.572
rwrist -57.0512
rhand -6.88338 -43.8994
rfingers 7.12502
rthumb 18.983 -72.9931
lclavicle 2.66371e-014 -4.45278e-014
lhumerus 24.0337 21.1722 -12.5849
lradius 35.6174
lwrist 54.3515
lhand -19.8134 -14.8035
lfingers 7.12502
lthumb 6.51996 15.0761
rfemur -5.66823 12.9217 -9.0605
rtibia 2.72959
rfoot -13.2205 -25.1914
rtoes 34.8437
lfemur -17.5364 3.24594 -31.0934
ltibia 17.8483
lfoot -18.3327 3.11681
ltoes 8.04341
603
root 5.6442 17.3365 1.81414 19.3207 1.38498 0.776573
lowerback -14.8074 1.19806 11.6885
upperback -14.1512 0.561438 1.13052
thorax -7.12396 -0.686063 -5.25307
lowerneck -5.27364 18.4304 9.46517
upperneck 8.21718 24.0119 -0.621295
head 4.45871 12.0999 -0.03187
rclavicle 1.59028e-015 -4.13472e-014
rhumerus 17.2771 -32.6329 16.3637
rradius 109.586
rwrist -57.0917
rhand -6.7603 -43.9849
rfingers 7.12502
rthumb 19.1013 -73.0669
lclavicle 1.59028e-015 -4.13472e-014
lhumerus 23.9336 21.1328 -12.715
lradius 35.6234
lwrist 54.6115
lhand -20.1845 -14.9471
lfingers 7.12502
lthumb 6.16169 14.9433
rfemur -5.59104 12.9618 -8.96445
rtibia 2.57943
rfoot -12.3591 -25.6614
rtoes 33.2908
lfemur -17.5265 3.20576 -30.991
ltibia 17.9014
lfoot -18.3333 3.24155
ltoes 7.98392
604
root 5.64587 17.3354 1.8167 19.3056 1.34873 0.719666
lowerback -14.8098 1.21661 11.7658
upperback -14.1099 0.575051 1.1383
thorax -7.07545 -0.681343 -5.28679
lowerneck -5.14419 18.4429 9.48683
upperneck 7.97445 24.05 -0.769746
head 4.385 12.1112 -0.0966309
rclavicle -5.1684e-015 -7.95139e-015
rhumerus 17.0458 -32.8306 16.5871
rradius 109.518
rwrist -56.9294
rhand -6.11087 -43.9383
rfingers 7.12502
rthumb 19.7258 -72.9574
lclavicle -5.1684e-015 -7.95139e-015
lhumerus 24 21.4511 -12.5074
lradius 35.5172
lwrist 54.526
lhand -20.3432 -14.832
lfingers 7.12502
lthumb 6.00844 15.0628
rfemur -5.58475 13.0151 -8.9236
rtibia 2.55491
rfoot -12.1629 -25.6813
rtoes 32.8986
lfemur -17.5357 3.24539 -30.9504
ltibia 17.9533
lfoot -18.3239 3.29321
ltoes 8.27652
605
root 5.64561 17.3365 1.81474 19.3531 1.43424 0.677174
lowerback -14.831 1.18209 11.8134
upperback -14.078 0.520425 1.15359
thorax -7.0392 -0.708747 -5.30162
lowerneck -5.14682 18.4798 9.55746
upperneck 7.86394 24.1012 -0.881441
head 4.37484 12.131 -0.133999
rclavicle 1.59028e-014 6.36111e-015
rhumerus 16.8441 -33.1746 16.7214
rradius 109.454
rwrist -56.9006
rhand -5.45917 -43.9475
rfingers 7.12502
rthumb 20.3522 -72.9011
lclavicle 1.59028e-014 6.36111e-015
lhumerus 23.9656 21.6858 -12.4649
lradius 35.4876
lwrist 54.5472
lhand -20.2758 -14.4509
lfingers 7.12502
lthumb 6.07358 15.4421
rfemur -5.62457 12.9344 -8.85053
rtibia 2.60077
rfoot -12.7737 -25.3572
rtoes 33.9443
lfemur -17.6185 3.24789 -30.8899
ltibia 18.0028
lfoot -18.3121 3.22717
ltoes 8.52825
606
root 5.64371 17.3385 1.81075 19.3765 1.54763 0.644635
lowerback -14.7549 1.11695 11.862
upperback -14.1015 0.443271 1.15246
thorax -7.12476 -0.757418 -5.33599
lowerneck -5.14104 18.51 9.69471
upperneck 7.87303 24.1408 -0.976777
head 4.40616 12.149 -0.167706
rclavicle 2.22639e-014 -6.36111e-015
rhumerus 16.632 -33.4686 16.882
rradius 109.416
rwrist -57.0443
rhand -5.06779 -44.2404
rfingers 7.12502
rthumb 20.7283 -73.1533
lclavicle 2.22639e-014 -6.36111e-015
lhumerus 23.8281 21.5832 -12.6322
lradius 35.5779
lwrist 54.871
lhand -20.3394 -14.2636
lfingers 7.12502
lthumb 6.01216 15.6311
rfemur -5.63192 12.84 -8.76555
rtibia 2.66565
rfoot -13.1266 -25.2188
rtoes 34.664
lfemur -17.6801 3.26773 -30.826
ltibia 18.0545
lfoot -18.3765 3.07048
ltoes 8.4588
607
root 5.64017 17.3407 1.80662 19.3185 1.55162 0.643166
lowerback -14.5038 1.07688 11.8768
upperback -14.183 0.430476 1.11626
thorax -7.35965 -0.783509 -5.38327
lowerneck -5.14878 18.5066 9.69576
upperneck 7.93051 24.1267 -0.878449
head 4.4126 12.1473 -0.139399
rclavicle 3.02153e-014 -9.54166e-015
rhumerus 16.4171 -33.4733 17.089
rradius 109.379
rwrist -57.086
rhand -5.27996 -44.5488
rfingers 7.12502
rthumb 20.5244 -73.4839
lclavicle 3.02153e-014 -9.54166e-015
lhumerus 23.9058 21.6131 -12.5377
lradius 35.5621
lwrist 55.0338
lhand -20.3027 -14.3466
lfingers 7.12502
lthumb 6.04761 15.5471
rfemur -5.65641 12.8667 -8.74077
rtibia 2.78844
rfoot -13.2543 -25.1574
rtoes 34.8723
lfemur -17.6743 3.28417 -30.8022
ltibia 18.0986
lfoot -18.4376 3.01981
ltoes 8.28545
608
root 5.63763 17.3416 1.80484 19.2259 1.52776 0.665968
lowerback -14.3349 1.05379 11.8643
upperback -14.2008 0.425633 1.08633
thorax -7.47254 -0.793591 -5.40892
lowerneck -5.16936 18.5132 9.58579
upperneck 7.91597 24.1282 -0.743495
head 4.38171 12.1515 -0.093112
rclavicle -7.55382e-015 -3.18055e-015
rhumerus 16.1224 -33.3611 17.4232
rradius 109.391
rwrist -56.9543
rhand -5.50852 -44.5322
rfingers 7.12502
rthumb 20.3048 -73.4908
lclavicle -7.55382e-015 -3.18055e-015
lhumerus 24.0215 21.7839 -12.3553
lradius 35.4609
lwrist 54.9209
lhand -20.4643 -14.5439
lfingers 7.12502
lthumb 5.89152 15.3542
rfemur -5.73585 12.9265 -8.74273
rtibia 3.06152
rfoot -14.0837 -24.6504
rtoes 36.2274
lfemur -17.6095 3.24546 -30.8033
ltibia 18.1161
lfoot -18.422 3.07606
ltoes 8.12415
609
root 5.63761 17.3407 1.8047 19.2033 1.56773 0.680608
lowerback -14.323 1.01893 11.8534
upperback -14.1759 0.38085 1.09699
thorax -7.45738 -0.812645 -5.39507
lowerneck -5.10133 18.5368 9.51362
upperneck 7.75847 24.1713 -0.760165
head 4.31736 12.1695 -0.103339
rclavicle -2.06736e-014 2.06736e-014
rhumerus 15.8131 -33.3403 17.8235
rradius 109.442
rwrist -56.8494
rhand -5.71781 -44.2528
rfingers 7.12502
rthumb 20.1036 -73.2327
lclavicle -2.06736e-014 2.06736e-014
lhumerus 23.9815 21.872 -12.3002
lradius 35.3974
lwrist 54.7476
lhand -21.0939 -14.7946
lfingers 7.12502
lthumb 5.28368 15.1195
rfemur -5.87928 12.9011 -8.7319
rtibia 3.41068
rfoot -13.7916 -24.6566
rtoes 35.7008
lfemur -17.5814 3.26153 -30.8093
ltibia 18.1143
lfoot -18.4039 3.02365
ltoes 8.09386
610
root 5.63656 17.3409 1.80302 19.2359 1.54255 0.749197
lowerback -14.2433 0.988237 11.7408
upperback -14.2117 0.36433 1.10572
thorax -7.53958 -0.816383 -5.32365
lowerneck -4.89963 18.5396 9.51877
upperneck 7.49398 24.2052 -0.908485
head 4.22402 12.1797 -0.175328
rclavicle 4.77083e-015 -3.49861e-014
rhumerus 15.5411 -33.3454 18.1615
rradius 109.503
rwrist -56.8859
rhand -6.73455 -43.9533
rfingers 7.12502
rthumb 19.1261 -73.0329
lclavicle 4.77083e-015 -3.49861e-014
lhumerus 23.8724 21.721 -12.3646
lradius 35.3975
lwrist 54.8022
lhand -21.1913 -14.7555
lfingers 7.12502
lthumb 5.18967 15.161
rfemur -6.11987 12.8851 -8.83102
rtibia 3.75308
rfoot -12.4189 -25.2076
rtoes 33.1332
lfemur -17.6257 3.36339 -30.904
ltibia 18.1079
lfoot -18.3941 2.9471
ltoes 8.0105
611
root 5.63565 17.3412 1.8036 19.2446 1.44787 0.813817
lowerback -14.1765 0.982923 11.6567
upperback -14.254 0.375685 1.08799
thorax -7.61901 -0.810534 -5.29476
lowerneck -4.7267 18.5499 9.55098
upperneck 7.36519 24.2407 -0.990823
head 4.1727 12.1955 -0.221328
rclavicle 3.18055e-015 1.27222e-014
rhumerus 15.2955 -33.3412 18.4311
rradius 109.581
rwrist -57.0729
rhand -7.77732 -43.8325
rfingers 7.12502
rthumb 18.1231 -73.0082
lclavicle 3.18055e-015 1.27222e-014
lhumerus 23.8131 21.4795 -12.4306
lradius 35.3554
lwrist 54.7629
lhand -21.261 -14.8923
lfingers 7.12502
lthumb 5.12234 15.0258
rfemur -6.3452 12.9394 -8.9491
rtibia 4.06097
rfoot -12.0258 -25.2719
rtoes 32.3568
lfemur -17.6383 3.42649 -31.001
ltibia 18.0998
lfoot -18.3934 2.97096
ltoes 7.80226
